<mxfile host="Electron" modified="2023-04-22T18:10:07.033Z" agent="Mozilla/5.0 (Windows NT 10.0; Win64; x64) AppleWebKit/537.36 (KHTML, like Gecko) draw.io/21.1.2 Chrome/106.0.5249.199 Electron/21.4.3 Safari/537.36" etag="SGdWSYVUqr4tNOjpAiaS" version="21.1.2" type="device">
  <diagram name="Page-1" id="RLY62JNfli0kCJG0wBf4">
    <mxGraphModel dx="1478" dy="826" grid="1" gridSize="10" guides="1" tooltips="1" connect="1" arrows="1" fold="1" page="1" pageScale="1" pageWidth="827" pageHeight="1169" math="0" shadow="0">
      <root>
        <mxCell id="0" />
        <mxCell id="1" parent="0" />
        <mxCell id="gDdGJmrrOVjuySJACGnp-16" style="edgeStyle=orthogonalEdgeStyle;rounded=0;orthogonalLoop=1;jettySize=auto;html=1;exitX=0.5;exitY=1;exitDx=0;exitDy=0;entryX=0.5;entryY=1;entryDx=0;entryDy=0;" edge="1" parent="1" source="gDdGJmrrOVjuySJACGnp-1" target="gDdGJmrrOVjuySJACGnp-3">
          <mxGeometry relative="1" as="geometry" />
        </mxCell>
        <mxCell id="gDdGJmrrOVjuySJACGnp-17" style="edgeStyle=orthogonalEdgeStyle;rounded=0;orthogonalLoop=1;jettySize=auto;html=1;exitX=0.5;exitY=1;exitDx=0;exitDy=0;entryX=0.5;entryY=1;entryDx=0;entryDy=0;" edge="1" parent="1" source="gDdGJmrrOVjuySJACGnp-1" target="gDdGJmrrOVjuySJACGnp-4">
          <mxGeometry relative="1" as="geometry" />
        </mxCell>
        <mxCell id="gDdGJmrrOVjuySJACGnp-18" style="edgeStyle=orthogonalEdgeStyle;rounded=0;orthogonalLoop=1;jettySize=auto;html=1;exitX=0.5;exitY=1;exitDx=0;exitDy=0;entryX=0.5;entryY=1;entryDx=0;entryDy=0;" edge="1" parent="1" source="gDdGJmrrOVjuySJACGnp-1" target="gDdGJmrrOVjuySJACGnp-5">
          <mxGeometry relative="1" as="geometry" />
        </mxCell>
        <mxCell id="gDdGJmrrOVjuySJACGnp-1" value="A" style="rounded=0;whiteSpace=wrap;html=1;" vertex="1" parent="1">
          <mxGeometry x="120" y="200" width="40" height="40" as="geometry" />
        </mxCell>
        <mxCell id="gDdGJmrrOVjuySJACGnp-19" style="edgeStyle=orthogonalEdgeStyle;rounded=0;orthogonalLoop=1;jettySize=auto;html=1;exitX=0.5;exitY=1;exitDx=0;exitDy=0;entryX=0.5;entryY=1;entryDx=0;entryDy=0;" edge="1" parent="1" source="gDdGJmrrOVjuySJACGnp-2" target="gDdGJmrrOVjuySJACGnp-3">
          <mxGeometry relative="1" as="geometry" />
        </mxCell>
        <mxCell id="gDdGJmrrOVjuySJACGnp-2" value="&lt;u&gt;B&lt;/u&gt;" style="rounded=0;whiteSpace=wrap;html=1;" vertex="1" parent="1">
          <mxGeometry x="160" y="200" width="40" height="40" as="geometry" />
        </mxCell>
        <mxCell id="gDdGJmrrOVjuySJACGnp-23" style="edgeStyle=orthogonalEdgeStyle;rounded=0;orthogonalLoop=1;jettySize=auto;html=1;" edge="1" parent="1">
          <mxGeometry relative="1" as="geometry">
            <mxPoint x="220" y="300" as="sourcePoint" />
            <mxPoint x="140" y="300" as="targetPoint" />
            <Array as="points">
              <mxPoint x="220" y="320" />
              <mxPoint x="140" y="320" />
            </Array>
          </mxGeometry>
        </mxCell>
        <mxCell id="gDdGJmrrOVjuySJACGnp-3" value="C" style="rounded=0;whiteSpace=wrap;html=1;" vertex="1" parent="1">
          <mxGeometry x="200" y="200" width="40" height="40" as="geometry" />
        </mxCell>
        <mxCell id="gDdGJmrrOVjuySJACGnp-22" style="edgeStyle=orthogonalEdgeStyle;rounded=0;orthogonalLoop=1;jettySize=auto;html=1;" edge="1" parent="1">
          <mxGeometry relative="1" as="geometry">
            <mxPoint x="260" y="270" as="sourcePoint" />
            <mxPoint x="300" y="270" as="targetPoint" />
            <Array as="points">
              <mxPoint x="260" y="290" />
              <mxPoint x="300" y="290" />
            </Array>
          </mxGeometry>
        </mxCell>
        <mxCell id="gDdGJmrrOVjuySJACGnp-4" value="D" style="rounded=0;whiteSpace=wrap;html=1;" vertex="1" parent="1">
          <mxGeometry x="240" y="200" width="40" height="40" as="geometry" />
        </mxCell>
        <mxCell id="gDdGJmrrOVjuySJACGnp-5" value="E" style="rounded=0;whiteSpace=wrap;html=1;" vertex="1" parent="1">
          <mxGeometry x="280" y="200" width="40" height="40" as="geometry" />
        </mxCell>
        <mxCell id="gDdGJmrrOVjuySJACGnp-20" value="FD1" style="text;html=1;strokeColor=none;fillColor=none;align=center;verticalAlign=middle;whiteSpace=wrap;rounded=0;" vertex="1" parent="1">
          <mxGeometry x="52" y="240" width="60" height="30" as="geometry" />
        </mxCell>
        <mxCell id="gDdGJmrrOVjuySJACGnp-24" value="FD2" style="text;html=1;strokeColor=none;fillColor=none;align=center;verticalAlign=middle;whiteSpace=wrap;rounded=0;" vertex="1" parent="1">
          <mxGeometry x="52" y="270" width="60" height="30" as="geometry" />
        </mxCell>
        <mxCell id="gDdGJmrrOVjuySJACGnp-25" value="FD3" style="text;html=1;strokeColor=none;fillColor=none;align=center;verticalAlign=middle;whiteSpace=wrap;rounded=0;" vertex="1" parent="1">
          <mxGeometry x="52" y="300" width="60" height="30" as="geometry" />
        </mxCell>
        <mxCell id="gDdGJmrrOVjuySJACGnp-28" style="edgeStyle=orthogonalEdgeStyle;rounded=0;orthogonalLoop=1;jettySize=auto;html=1;exitX=0.5;exitY=1;exitDx=0;exitDy=0;entryX=0.5;entryY=1;entryDx=0;entryDy=0;" edge="1" source="gDdGJmrrOVjuySJACGnp-31" target="gDdGJmrrOVjuySJACGnp-35" parent="1">
          <mxGeometry relative="1" as="geometry" />
        </mxCell>
        <mxCell id="gDdGJmrrOVjuySJACGnp-29" style="edgeStyle=orthogonalEdgeStyle;rounded=0;orthogonalLoop=1;jettySize=auto;html=1;exitX=0.5;exitY=1;exitDx=0;exitDy=0;entryX=0.5;entryY=1;entryDx=0;entryDy=0;" edge="1" source="gDdGJmrrOVjuySJACGnp-31" target="gDdGJmrrOVjuySJACGnp-37" parent="1">
          <mxGeometry relative="1" as="geometry" />
        </mxCell>
        <mxCell id="gDdGJmrrOVjuySJACGnp-31" value="&lt;u&gt;A&lt;/u&gt;" style="rounded=0;whiteSpace=wrap;html=1;" vertex="1" parent="1">
          <mxGeometry x="120" y="400" width="40" height="40" as="geometry" />
        </mxCell>
        <mxCell id="gDdGJmrrOVjuySJACGnp-32" style="edgeStyle=orthogonalEdgeStyle;rounded=0;orthogonalLoop=1;jettySize=auto;html=1;exitX=0.5;exitY=1;exitDx=0;exitDy=0;entryX=0.5;entryY=1;entryDx=0;entryDy=0;" edge="1" source="gDdGJmrrOVjuySJACGnp-33" target="gDdGJmrrOVjuySJACGnp-35" parent="1">
          <mxGeometry relative="1" as="geometry" />
        </mxCell>
        <mxCell id="gDdGJmrrOVjuySJACGnp-33" value="&lt;u&gt;B&lt;/u&gt;" style="rounded=0;whiteSpace=wrap;html=1;" vertex="1" parent="1">
          <mxGeometry x="160" y="400" width="40" height="40" as="geometry" />
        </mxCell>
        <mxCell id="gDdGJmrrOVjuySJACGnp-34" style="edgeStyle=orthogonalEdgeStyle;rounded=0;orthogonalLoop=1;jettySize=auto;html=1;" edge="1" parent="1">
          <mxGeometry relative="1" as="geometry">
            <mxPoint x="220" y="470" as="sourcePoint" />
            <mxPoint x="140" y="470" as="targetPoint" />
            <Array as="points">
              <mxPoint x="220" y="490" />
              <mxPoint x="140" y="490" />
            </Array>
          </mxGeometry>
        </mxCell>
        <mxCell id="gDdGJmrrOVjuySJACGnp-35" value="C" style="rounded=0;whiteSpace=wrap;html=1;" vertex="1" parent="1">
          <mxGeometry x="200" y="400" width="40" height="40" as="geometry" />
        </mxCell>
        <mxCell id="gDdGJmrrOVjuySJACGnp-36" style="edgeStyle=orthogonalEdgeStyle;rounded=0;orthogonalLoop=1;jettySize=auto;html=1;" edge="1" parent="1">
          <mxGeometry relative="1" as="geometry">
            <mxPoint x="340" y="440" as="sourcePoint" />
            <mxPoint x="380" y="440" as="targetPoint" />
            <Array as="points">
              <mxPoint x="340" y="460" />
              <mxPoint x="380" y="460" />
            </Array>
          </mxGeometry>
        </mxCell>
        <mxCell id="gDdGJmrrOVjuySJACGnp-37" value="D" style="rounded=0;whiteSpace=wrap;html=1;" vertex="1" parent="1">
          <mxGeometry x="240" y="400" width="40" height="40" as="geometry" />
        </mxCell>
        <mxCell id="gDdGJmrrOVjuySJACGnp-39" value="FD1" style="text;html=1;strokeColor=none;fillColor=none;align=center;verticalAlign=middle;whiteSpace=wrap;rounded=0;" vertex="1" parent="1">
          <mxGeometry x="52" y="440" width="60" height="30" as="geometry" />
        </mxCell>
        <mxCell id="gDdGJmrrOVjuySJACGnp-40" value="FD2" style="text;html=1;strokeColor=none;fillColor=none;align=center;verticalAlign=middle;whiteSpace=wrap;rounded=0;" vertex="1" parent="1">
          <mxGeometry x="330" y="470" width="60" height="30" as="geometry" />
        </mxCell>
        <mxCell id="gDdGJmrrOVjuySJACGnp-41" value="FD3" style="text;html=1;strokeColor=none;fillColor=none;align=center;verticalAlign=middle;whiteSpace=wrap;rounded=0;" vertex="1" parent="1">
          <mxGeometry x="52" y="470" width="60" height="30" as="geometry" />
        </mxCell>
        <mxCell id="gDdGJmrrOVjuySJACGnp-42" value="3FN" style="text;html=1;strokeColor=none;fillColor=none;align=center;verticalAlign=middle;whiteSpace=wrap;rounded=0;fontStyle=1" vertex="1" parent="1">
          <mxGeometry x="-20" y="405" width="60" height="30" as="geometry" />
        </mxCell>
        <mxCell id="gDdGJmrrOVjuySJACGnp-44" value="D" style="rounded=0;whiteSpace=wrap;html=1;" vertex="1" parent="1">
          <mxGeometry x="320" y="400" width="40" height="40" as="geometry" />
        </mxCell>
        <mxCell id="gDdGJmrrOVjuySJACGnp-45" value="E" style="rounded=0;whiteSpace=wrap;html=1;" vertex="1" parent="1">
          <mxGeometry x="360" y="400" width="40" height="40" as="geometry" />
        </mxCell>
        <mxCell id="gDdGJmrrOVjuySJACGnp-46" value="EP1" style="text;html=1;strokeColor=none;fillColor=none;align=center;verticalAlign=middle;whiteSpace=wrap;rounded=0;fontStyle=1" vertex="1" parent="1">
          <mxGeometry x="100" y="375" width="60" height="30" as="geometry" />
        </mxCell>
        <mxCell id="gDdGJmrrOVjuySJACGnp-47" value="EP2" style="text;html=1;strokeColor=none;fillColor=none;align=center;verticalAlign=middle;whiteSpace=wrap;rounded=0;fontStyle=1" vertex="1" parent="1">
          <mxGeometry x="300" y="375" width="60" height="30" as="geometry" />
        </mxCell>
        <mxCell id="gDdGJmrrOVjuySJACGnp-48" value="EP1" style="text;html=1;strokeColor=none;fillColor=none;align=center;verticalAlign=middle;whiteSpace=wrap;rounded=0;fontStyle=1" vertex="1" parent="1">
          <mxGeometry x="100" y="175" width="60" height="30" as="geometry" />
        </mxCell>
        <mxCell id="gDdGJmrrOVjuySJACGnp-49" style="edgeStyle=orthogonalEdgeStyle;rounded=0;orthogonalLoop=1;jettySize=auto;html=1;exitX=0.5;exitY=1;exitDx=0;exitDy=0;entryX=0.5;entryY=1;entryDx=0;entryDy=0;" edge="1" source="gDdGJmrrOVjuySJACGnp-51" target="gDdGJmrrOVjuySJACGnp-55" parent="1">
          <mxGeometry relative="1" as="geometry" />
        </mxCell>
        <mxCell id="gDdGJmrrOVjuySJACGnp-50" style="edgeStyle=orthogonalEdgeStyle;rounded=0;orthogonalLoop=1;jettySize=auto;html=1;exitX=0.5;exitY=1;exitDx=0;exitDy=0;entryX=0.5;entryY=1;entryDx=0;entryDy=0;" edge="1" source="gDdGJmrrOVjuySJACGnp-51" target="gDdGJmrrOVjuySJACGnp-57" parent="1">
          <mxGeometry relative="1" as="geometry" />
        </mxCell>
        <mxCell id="gDdGJmrrOVjuySJACGnp-51" value="&lt;u&gt;A&lt;/u&gt;" style="rounded=0;whiteSpace=wrap;html=1;" vertex="1" parent="1">
          <mxGeometry x="120" y="590" width="40" height="40" as="geometry" />
        </mxCell>
        <mxCell id="gDdGJmrrOVjuySJACGnp-52" style="edgeStyle=orthogonalEdgeStyle;rounded=0;orthogonalLoop=1;jettySize=auto;html=1;exitX=0.5;exitY=1;exitDx=0;exitDy=0;entryX=0.5;entryY=1;entryDx=0;entryDy=0;" edge="1" source="gDdGJmrrOVjuySJACGnp-53" target="gDdGJmrrOVjuySJACGnp-55" parent="1">
          <mxGeometry relative="1" as="geometry" />
        </mxCell>
        <mxCell id="gDdGJmrrOVjuySJACGnp-53" value="&lt;u&gt;B&lt;/u&gt;" style="rounded=0;whiteSpace=wrap;html=1;" vertex="1" parent="1">
          <mxGeometry x="160" y="590" width="40" height="40" as="geometry" />
        </mxCell>
        <mxCell id="gDdGJmrrOVjuySJACGnp-55" value="C" style="rounded=0;whiteSpace=wrap;html=1;" vertex="1" parent="1">
          <mxGeometry x="200" y="590" width="40" height="40" as="geometry" />
        </mxCell>
        <mxCell id="gDdGJmrrOVjuySJACGnp-56" style="edgeStyle=orthogonalEdgeStyle;rounded=0;orthogonalLoop=1;jettySize=auto;html=1;" edge="1" parent="1">
          <mxGeometry relative="1" as="geometry">
            <mxPoint x="340" y="630" as="sourcePoint" />
            <mxPoint x="380" y="630" as="targetPoint" />
            <Array as="points">
              <mxPoint x="340" y="650" />
              <mxPoint x="380" y="650" />
            </Array>
          </mxGeometry>
        </mxCell>
        <mxCell id="gDdGJmrrOVjuySJACGnp-57" value="D" style="rounded=0;whiteSpace=wrap;html=1;" vertex="1" parent="1">
          <mxGeometry x="240" y="590" width="40" height="40" as="geometry" />
        </mxCell>
        <mxCell id="gDdGJmrrOVjuySJACGnp-58" value="FD1" style="text;html=1;strokeColor=none;fillColor=none;align=center;verticalAlign=middle;whiteSpace=wrap;rounded=0;" vertex="1" parent="1">
          <mxGeometry x="52" y="630" width="60" height="30" as="geometry" />
        </mxCell>
        <mxCell id="gDdGJmrrOVjuySJACGnp-59" value="FD2" style="text;html=1;strokeColor=none;fillColor=none;align=center;verticalAlign=middle;whiteSpace=wrap;rounded=0;" vertex="1" parent="1">
          <mxGeometry x="330" y="660" width="60" height="30" as="geometry" />
        </mxCell>
        <mxCell id="gDdGJmrrOVjuySJACGnp-61" value="BCNF" style="text;html=1;strokeColor=none;fillColor=none;align=center;verticalAlign=middle;whiteSpace=wrap;rounded=0;fontStyle=1" vertex="1" parent="1">
          <mxGeometry x="-20" y="595" width="60" height="30" as="geometry" />
        </mxCell>
        <mxCell id="gDdGJmrrOVjuySJACGnp-62" value="D" style="rounded=0;whiteSpace=wrap;html=1;" vertex="1" parent="1">
          <mxGeometry x="320" y="590" width="40" height="40" as="geometry" />
        </mxCell>
        <mxCell id="gDdGJmrrOVjuySJACGnp-63" value="E" style="rounded=0;whiteSpace=wrap;html=1;" vertex="1" parent="1">
          <mxGeometry x="360" y="590" width="40" height="40" as="geometry" />
        </mxCell>
        <mxCell id="gDdGJmrrOVjuySJACGnp-64" value="EP1" style="text;html=1;strokeColor=none;fillColor=none;align=center;verticalAlign=middle;whiteSpace=wrap;rounded=0;fontStyle=1" vertex="1" parent="1">
          <mxGeometry x="100" y="560" width="60" height="30" as="geometry" />
        </mxCell>
        <mxCell id="gDdGJmrrOVjuySJACGnp-65" value="EP2" style="text;html=1;strokeColor=none;fillColor=none;align=center;verticalAlign=middle;whiteSpace=wrap;rounded=0;fontStyle=1" vertex="1" parent="1">
          <mxGeometry x="300" y="560" width="60" height="30" as="geometry" />
        </mxCell>
        <mxCell id="gDdGJmrrOVjuySJACGnp-67" value="FD3" style="text;html=1;strokeColor=none;fillColor=none;align=center;verticalAlign=middle;whiteSpace=wrap;rounded=0;" vertex="1" parent="1">
          <mxGeometry x="444" y="660" width="60" height="30" as="geometry" />
        </mxCell>
        <mxCell id="gDdGJmrrOVjuySJACGnp-68" value="&lt;u&gt;A&lt;/u&gt;" style="rounded=0;whiteSpace=wrap;html=1;" vertex="1" parent="1">
          <mxGeometry x="434" y="590" width="40" height="40" as="geometry" />
        </mxCell>
        <mxCell id="gDdGJmrrOVjuySJACGnp-71" style="edgeStyle=orthogonalEdgeStyle;rounded=0;orthogonalLoop=1;jettySize=auto;html=1;exitX=0.5;exitY=1;exitDx=0;exitDy=0;entryX=0.5;entryY=1;entryDx=0;entryDy=0;" edge="1" parent="1" source="gDdGJmrrOVjuySJACGnp-69" target="gDdGJmrrOVjuySJACGnp-68">
          <mxGeometry relative="1" as="geometry" />
        </mxCell>
        <mxCell id="gDdGJmrrOVjuySJACGnp-69" value="C" style="rounded=0;whiteSpace=wrap;html=1;" vertex="1" parent="1">
          <mxGeometry x="474" y="590" width="40" height="40" as="geometry" />
        </mxCell>
        <mxCell id="gDdGJmrrOVjuySJACGnp-70" value="EP3" style="text;html=1;strokeColor=none;fillColor=none;align=center;verticalAlign=middle;whiteSpace=wrap;rounded=0;fontStyle=1" vertex="1" parent="1">
          <mxGeometry x="414" y="560" width="60" height="30" as="geometry" />
        </mxCell>
      </root>
    </mxGraphModel>
  </diagram>
</mxfile>
